<svg width="175" height="41" viewBox="0 0 175 41" fill="none" xmlns="http://www.w3.org/2000/svg">
<path d="M81.2734 28.4473C81.2734 27.6777 80.6172 27.1543 79.3047 26.877C78.5156 26.709 77.9668 26.4941 77.6582 26.2324C77.3496 25.9668 77.1953 25.6035 77.1953 25.1426C77.1953 24.6777 77.3906 24.2949 77.7812 23.9941C78.1758 23.6934 78.6875 23.543 79.3164 23.543C80 23.543 80.5488 23.707 80.9629 24.0352C81.377 24.3594 81.584 24.7988 81.584 25.3535H81.2617C81.2617 24.9277 81.082 24.5723 80.7227 24.2871C80.3633 24.002 79.8945 23.8594 79.3164 23.8594C78.7617 23.8594 78.3223 23.9805 77.998 24.2227C77.6738 24.4648 77.5117 24.7676 77.5117 25.1309C77.5117 25.416 77.5723 25.6406 77.6934 25.8047C77.8145 25.9648 78.0117 26.1113 78.2852 26.2441C78.5586 26.373 78.957 26.498 79.4805 26.6191C80.0039 26.7402 80.418 26.8828 80.7227 27.0469C81.0273 27.2109 81.248 27.4062 81.3848 27.6328C81.5215 27.8555 81.5898 28.1289 81.5898 28.4531C81.5898 28.9531 81.3848 29.3555 80.9746 29.6602C80.5645 29.9648 80.0273 30.1172 79.3633 30.1172C78.6523 30.1172 78.0781 29.957 77.6406 29.6367C77.207 29.3125 76.9902 28.8965 76.9902 28.3887H77.3066C77.3379 28.834 77.5332 29.1816 77.8926 29.4316C78.2559 29.6777 78.7461 29.8008 79.3633 29.8008C79.9297 29.8008 80.3887 29.6699 80.7402 29.4082C81.0957 29.1426 81.2734 28.8223 81.2734 28.4473ZM85.8812 29.5078L85.9223 29.3906L88.1137 23.6602H88.4652L85.6293 31.1016L85.4887 31.4531C85.184 32.1914 84.6801 32.5605 83.977 32.5605C83.7504 32.5605 83.5941 32.5391 83.5082 32.4961L83.5023 32.1973C83.6273 32.2324 83.7699 32.25 83.9301 32.25C84.2621 32.25 84.5375 32.1523 84.7562 31.957C84.975 31.7656 85.1645 31.4512 85.3246 31.0137L85.7113 29.9648L83.1859 23.6602H83.5316L85.8812 29.5078ZM94.1805 28.4473C94.1805 27.6777 93.5242 27.1543 92.2117 26.877C91.4227 26.709 90.8738 26.4941 90.5652 26.2324C90.2566 25.9668 90.1023 25.6035 90.1023 25.1426C90.1023 24.6777 90.2977 24.2949 90.6883 23.9941C91.0828 23.6934 91.5945 23.543 92.2234 23.543C92.907 23.543 93.4559 23.707 93.8699 24.0352C94.284 24.3594 94.491 24.7988 94.491 25.3535H94.1687C94.1687 24.9277 93.9891 24.5723 93.6297 24.2871C93.2703 24.002 92.8016 23.8594 92.2234 23.8594C91.6687 23.8594 91.2293 23.9805 90.9051 24.2227C90.5809 24.4648 90.4187 24.7676 90.4187 25.1309C90.4187 25.416 90.4793 25.6406 90.6004 25.8047C90.7215 25.9648 90.9187 26.1113 91.1922 26.2441C91.4656 26.373 91.8641 26.498 92.3875 26.6191C92.9109 26.7402 93.325 26.8828 93.6297 27.0469C93.9344 27.2109 94.1551 27.4062 94.2918 27.6328C94.4285 27.8555 94.4969 28.1289 94.4969 28.4531C94.4969 28.9531 94.2918 29.3555 93.8816 29.6602C93.4715 29.9648 92.9344 30.1172 92.2703 30.1172C91.5594 30.1172 90.9852 29.957 90.5477 29.6367C90.1141 29.3125 89.8973 28.8965 89.8973 28.3887H90.2137C90.2449 28.834 90.4402 29.1816 90.7996 29.4316C91.1629 29.6777 91.6531 29.8008 92.2703 29.8008C92.8367 29.8008 93.2957 29.6699 93.6473 29.4082C94.0027 29.1426 94.1805 28.8223 94.1805 28.4473ZM97.5578 21.9492V23.6602H98.9992V23.9824H97.5578V28.4824C97.5578 28.9316 97.6301 29.2637 97.7746 29.4785C97.923 29.6934 98.1691 29.8008 98.5129 29.8008C98.6848 29.8008 98.8937 29.7832 99.1398 29.748L99.1926 30.0469C99.0637 30.0938 98.843 30.1172 98.5305 30.1172C98.0695 30.1172 97.7395 29.9902 97.5402 29.7363C97.341 29.4785 97.2395 29.0742 97.2355 28.5234V23.9824H96.0637V23.6602H97.2355V21.9492H97.5578ZM103.525 30.1172C103.013 30.1172 102.543 29.9805 102.113 29.707C101.687 29.4297 101.353 29.0508 101.111 28.5703C100.869 28.0898 100.748 27.5566 100.748 26.9707V26.707C100.748 26.1211 100.865 25.584 101.099 25.0957C101.334 24.6074 101.656 24.2266 102.066 23.9531C102.476 23.6797 102.923 23.543 103.408 23.543C104.115 23.543 104.693 23.7949 105.142 24.2988C105.591 24.8027 105.816 25.4648 105.816 26.2852V26.6191H101.064V26.9648C101.064 27.4805 101.171 27.959 101.386 28.4004C101.605 28.8379 101.904 29.1816 102.283 29.4316C102.666 29.6816 103.08 29.8066 103.525 29.8066C103.951 29.8066 104.312 29.7363 104.609 29.5957C104.91 29.4512 105.175 29.2305 105.406 28.9336L105.629 29.0918C105.156 29.7754 104.455 30.1172 103.525 30.1172ZM103.408 23.8594C102.791 23.8594 102.267 24.0898 101.837 24.5508C101.408 25.0078 101.156 25.5918 101.082 26.3027H105.5V26.2266C105.5 25.7969 105.408 25.3984 105.224 25.0312C105.045 24.6602 104.795 24.373 104.474 24.1699C104.158 23.9629 103.802 23.8594 103.408 23.8594ZM112.428 30H112.111V25.7402C112.107 25.1035 111.967 24.6309 111.689 24.3223C111.416 24.0098 110.979 23.8535 110.377 23.8535C109.682 23.8535 109.113 24.1602 108.672 24.7734C108.41 25.1406 108.236 25.5469 108.15 25.9922V30H107.828V23.6602H108.15V25.1602C108.365 24.6445 108.672 24.2461 109.07 23.9648C109.469 23.6836 109.91 23.543 110.395 23.543C110.926 23.543 111.359 23.6602 111.695 23.8945C112.035 24.1289 112.258 24.5117 112.363 25.043C112.551 24.5859 112.855 24.2227 113.277 23.9531C113.699 23.6797 114.172 23.543 114.695 23.543C115.379 23.543 115.887 23.7363 116.219 24.123C116.555 24.5098 116.725 25.0898 116.729 25.8633V30H116.412V25.8867C116.412 25.1914 116.271 24.6777 115.99 24.3457C115.713 24.0098 115.275 23.8457 114.678 23.8535C113.908 23.8652 113.299 24.1719 112.85 24.7734C112.592 25.1211 112.451 25.457 112.428 25.7812V30Z" fill="black"/>
<path d="M78.1199 16.3906H82.3328V17H77.3934V8.46875H78.1199V16.3906ZM84.9426 17H84.2395V10.6602H84.9426V17ZM84.1164 8.82617C84.1164 8.69336 84.1594 8.58203 84.2453 8.49219C84.3313 8.39844 84.4484 8.35156 84.5969 8.35156C84.7453 8.35156 84.8625 8.39844 84.9484 8.49219C85.0383 8.58203 85.0832 8.69336 85.0832 8.82617C85.0832 8.95898 85.0383 9.07031 84.9484 9.16016C84.8625 9.25 84.7453 9.29492 84.5969 9.29492C84.4484 9.29492 84.3313 9.25 84.2453 9.16016C84.1594 9.07031 84.1164 8.95898 84.1164 8.82617ZM88.5426 9.03711V10.6602H89.8551V11.2344H88.5426V15.459C88.5426 15.8105 88.6051 16.0723 88.7301 16.2441C88.859 16.416 89.0719 16.502 89.3688 16.502C89.4859 16.502 89.6754 16.4824 89.9371 16.4434L89.9664 17.0176C89.7828 17.084 89.5328 17.1172 89.2164 17.1172C88.7359 17.1172 88.3863 16.9785 88.1676 16.7012C87.9488 16.4199 87.8395 16.0078 87.8395 15.4648V11.2344H86.6734V10.6602H87.8395V9.03711H88.5426ZM92.6055 11.7324C92.8359 11.3535 93.1309 11.0605 93.4902 10.8535C93.8496 10.6465 94.2422 10.543 94.668 10.543C95.3477 10.543 95.8535 10.7344 96.1855 11.1172C96.5176 11.5 96.6855 12.0742 96.6895 12.8398V17H95.9922V12.834C95.9883 12.2676 95.8672 11.8457 95.6289 11.5684C95.3945 11.291 95.0176 11.1523 94.498 11.1523C94.0645 11.1523 93.6797 11.2891 93.3438 11.5625C93.0117 11.832 92.7656 12.1973 92.6055 12.6582V17H91.9082V8H92.6055V11.7324ZM98.7074 13.7363C98.7074 13.127 98.8246 12.5781 99.059 12.0898C99.2973 11.6016 99.6313 11.2227 100.061 10.9531C100.495 10.6797 100.985 10.543 101.532 10.543C102.375 10.543 103.059 10.8398 103.582 11.4336C104.106 12.0234 104.368 12.8066 104.368 13.7832V13.9297C104.368 14.543 104.248 15.0957 104.01 15.5879C103.776 16.0762 103.444 16.4531 103.014 16.7188C102.584 16.9844 102.094 17.1172 101.543 17.1172C100.704 17.1172 100.02 16.8223 99.4926 16.2324C98.9691 15.6387 98.7074 14.8535 98.7074 13.877V13.7363ZM99.4105 13.9297C99.4105 14.6875 99.6059 15.3105 99.9965 15.7988C100.391 16.2832 100.907 16.5254 101.543 16.5254C102.176 16.5254 102.688 16.2832 103.079 15.7988C103.473 15.3105 103.67 14.668 103.67 13.8711V13.7363C103.67 13.252 103.58 12.8086 103.401 12.4062C103.221 12.0039 102.969 11.6934 102.645 11.4746C102.321 11.252 101.95 11.1406 101.532 11.1406C100.907 11.1406 100.397 11.3867 100.002 11.8789C99.6078 12.3672 99.4105 13.0078 99.4105 13.8008V13.9297ZM110.218 15.3887C110.218 15.041 110.077 14.7617 109.796 14.5508C109.518 14.3398 109.098 14.1758 108.536 14.0586C107.973 13.9375 107.536 13.8008 107.223 13.6484C106.915 13.4922 106.684 13.3027 106.532 13.0801C106.384 12.8574 106.309 12.5879 106.309 12.2715C106.309 11.7715 106.518 11.3594 106.936 11.0352C107.354 10.707 107.889 10.543 108.542 10.543C109.249 10.543 109.815 10.7188 110.241 11.0703C110.671 11.418 110.886 11.873 110.886 12.4355H110.182C110.182 12.0645 110.026 11.7559 109.714 11.5098C109.405 11.2637 109.014 11.1406 108.542 11.1406C108.081 11.1406 107.71 11.2441 107.429 11.4512C107.151 11.6543 107.013 11.9199 107.013 12.248C107.013 12.5645 107.128 12.8105 107.358 12.9863C107.593 13.1582 108.016 13.3164 108.63 13.4609C109.247 13.6055 109.708 13.7598 110.013 13.9238C110.321 14.0879 110.55 14.2852 110.698 14.5156C110.846 14.7461 110.921 15.0254 110.921 15.3535C110.921 15.8887 110.704 16.3164 110.27 16.6367C109.841 16.957 109.278 17.1172 108.583 17.1172C107.845 17.1172 107.245 16.9395 106.784 16.584C106.327 16.2246 106.098 15.7715 106.098 15.2246H106.802C106.829 15.6348 107.001 15.9551 107.317 16.1855C107.638 16.4121 108.059 16.5254 108.583 16.5254C109.071 16.5254 109.466 16.418 109.766 16.2031C110.067 15.9883 110.218 15.7168 110.218 15.3887ZM114.193 9.03711V10.6602H115.505V11.2344H114.193V15.459C114.193 15.8105 114.255 16.0723 114.38 16.2441C114.509 16.416 114.722 16.502 115.019 16.502C115.136 16.502 115.325 16.4824 115.587 16.4434L115.616 17.0176C115.433 17.084 115.183 17.1172 114.866 17.1172C114.386 17.1172 114.036 16.9785 113.818 16.7012C113.599 16.4199 113.489 16.0078 113.489 15.4648V11.2344H112.323V10.6602H113.489V9.03711H114.193ZM120.488 11.2578C120.339 11.2305 120.181 11.2168 120.013 11.2168C119.576 11.2168 119.205 11.3398 118.9 11.5859C118.599 11.8281 118.384 12.1816 118.255 12.6465V17H117.558V10.6602H118.244L118.255 11.668C118.627 10.918 119.222 10.543 120.043 10.543C120.238 10.543 120.392 10.5684 120.505 10.6191L120.488 11.2578ZM125.969 17C125.898 16.8008 125.854 16.5059 125.834 16.1152C125.588 16.4355 125.273 16.6836 124.891 16.8594C124.512 17.0312 124.109 17.1172 123.684 17.1172C123.074 17.1172 122.58 16.9473 122.201 16.6074C121.826 16.2676 121.639 15.8379 121.639 15.3184C121.639 14.7012 121.895 14.2129 122.406 13.8535C122.922 13.4941 123.639 13.3145 124.557 13.3145H125.828V12.5938C125.828 12.1406 125.688 11.7852 125.406 11.5273C125.129 11.2656 124.723 11.1348 124.188 11.1348C123.699 11.1348 123.295 11.2598 122.975 11.5098C122.654 11.7598 122.494 12.0605 122.494 12.4121L121.791 12.4062C121.791 11.9023 122.025 11.4668 122.494 11.0996C122.963 10.7285 123.539 10.543 124.223 10.543C124.93 10.543 125.486 10.7207 125.893 11.0762C126.303 11.4277 126.514 11.9199 126.525 12.5527V15.5527C126.525 16.166 126.59 16.625 126.719 16.9297V17H125.969ZM123.766 16.4961C124.234 16.4961 124.652 16.3828 125.02 16.1562C125.391 15.9297 125.66 15.627 125.828 15.248V13.8535H124.574C123.875 13.8613 123.328 13.9902 122.934 14.2402C122.539 14.4863 122.342 14.8262 122.342 15.2598C122.342 15.6152 122.473 15.9102 122.734 16.1445C123 16.3789 123.344 16.4961 123.766 16.4961ZM130.09 9.03711V10.6602H131.403V11.2344H130.09V15.459C130.09 15.8105 130.153 16.0723 130.278 16.2441C130.407 16.416 130.62 16.502 130.916 16.502C131.034 16.502 131.223 16.4824 131.485 16.4434L131.514 17.0176C131.33 17.084 131.08 17.1172 130.764 17.1172C130.284 17.1172 129.934 16.9785 129.715 16.7012C129.496 16.4199 129.387 16.0078 129.387 15.4648V11.2344H128.221V10.6602H129.387V9.03711H130.09ZM134.241 17H133.538V10.6602H134.241V17ZM133.415 8.82617C133.415 8.69336 133.458 8.58203 133.544 8.49219C133.63 8.39844 133.747 8.35156 133.895 8.35156C134.044 8.35156 134.161 8.39844 134.247 8.49219C134.337 8.58203 134.382 8.69336 134.382 8.82617C134.382 8.95898 134.337 9.07031 134.247 9.16016C134.161 9.25 134.044 9.29492 133.895 9.29492C133.747 9.29492 133.63 9.25 133.544 9.16016C133.458 9.07031 133.415 8.95898 133.415 8.82617ZM136.47 13.7715C136.47 12.7793 136.689 11.9941 137.126 11.416C137.568 10.834 138.165 10.543 138.919 10.543C139.782 10.543 140.439 10.8867 140.888 11.5742L140.923 10.6602H141.579V16.8711C141.579 17.6875 141.351 18.334 140.894 18.8105C140.437 19.2871 139.818 19.5254 139.036 19.5254C138.595 19.5254 138.173 19.4258 137.771 19.2266C137.372 19.0312 137.058 18.7695 136.827 18.4414L137.22 18.0195C137.716 18.6289 138.306 18.9336 138.989 18.9336C139.575 18.9336 140.032 18.7598 140.361 18.4121C140.689 18.0684 140.859 17.5898 140.87 16.9766V16.1797C140.421 16.8047 139.767 17.1172 138.907 17.1172C138.173 17.1172 137.583 16.8242 137.138 16.2383C136.693 15.6523 136.47 14.8613 136.47 13.8652V13.7715ZM137.179 13.8945C137.179 14.7031 137.341 15.3418 137.665 15.8105C137.989 16.2754 138.446 16.5078 139.036 16.5078C139.9 16.5078 140.511 16.1211 140.87 15.3477V12.4004C140.706 11.9941 140.47 11.6855 140.161 11.4746C139.853 11.2598 139.482 11.1523 139.048 11.1523C138.458 11.1523 137.999 11.3848 137.671 11.8496C137.343 12.3105 137.179 12.9922 137.179 13.8945ZM146.937 11.2578C146.789 11.2305 146.63 11.2168 146.462 11.2168C146.025 11.2168 145.654 11.3398 145.349 11.5859C145.048 11.8281 144.834 12.1816 144.705 12.6465V17H144.007V10.6602H144.693L144.705 11.668C145.076 10.918 145.671 10.543 146.492 10.543C146.687 10.543 146.841 10.5684 146.955 10.6191L146.937 11.2578ZM152.418 17C152.348 16.8008 152.303 16.5059 152.283 16.1152C152.037 16.4355 151.723 16.6836 151.34 16.8594C150.961 17.0312 150.559 17.1172 150.133 17.1172C149.523 17.1172 149.029 16.9473 148.65 16.6074C148.275 16.2676 148.088 15.8379 148.088 15.3184C148.088 14.7012 148.344 14.2129 148.855 13.8535C149.371 13.4941 150.088 13.3145 151.006 13.3145H152.277V12.5938C152.277 12.1406 152.137 11.7852 151.855 11.5273C151.578 11.2656 151.172 11.1348 150.637 11.1348C150.148 11.1348 149.744 11.2598 149.424 11.5098C149.104 11.7598 148.943 12.0605 148.943 12.4121L148.24 12.4062C148.24 11.9023 148.475 11.4668 148.943 11.0996C149.412 10.7285 149.988 10.543 150.672 10.543C151.379 10.543 151.936 10.7207 152.342 11.0762C152.752 11.4277 152.963 11.9199 152.975 12.5527V15.5527C152.975 16.166 153.039 16.625 153.168 16.9297V17H152.418ZM150.215 16.4961C150.684 16.4961 151.102 16.3828 151.469 16.1562C151.84 15.9297 152.109 15.627 152.277 15.248V13.8535H151.023C150.324 13.8613 149.777 13.9902 149.383 14.2402C148.988 14.4863 148.791 14.8262 148.791 15.2598C148.791 15.6152 148.922 15.9102 149.184 16.1445C149.449 16.3789 149.793 16.4961 150.215 16.4961ZM160.547 13.8945C160.547 14.8828 160.329 15.668 159.891 16.25C159.454 16.8281 158.868 17.1172 158.133 17.1172C157.266 17.1172 156.602 16.8125 156.141 16.2031V19.4375H155.444V10.6602H156.094L156.129 11.5566C156.586 10.8809 157.248 10.543 158.116 10.543C158.873 10.543 159.467 10.8301 159.897 11.4043C160.33 11.9785 160.547 12.7754 160.547 13.7949V13.8945ZM159.844 13.7715C159.844 12.9629 159.678 12.3242 159.346 11.8555C159.014 11.3867 158.551 11.1523 157.957 11.1523C157.528 11.1523 157.159 11.2559 156.85 11.4629C156.541 11.6699 156.305 11.9707 156.141 12.3652V15.4062C156.309 15.7695 156.549 16.0469 156.862 16.2383C157.174 16.4297 157.543 16.5254 157.969 16.5254C158.559 16.5254 159.018 16.291 159.346 15.8223C159.678 15.3496 159.844 14.666 159.844 13.7715ZM163.403 11.7324C163.634 11.3535 163.929 11.0605 164.288 10.8535C164.647 10.6465 165.04 10.543 165.466 10.543C166.145 10.543 166.651 10.7344 166.983 11.1172C167.315 11.5 167.483 12.0742 167.487 12.8398V17H166.79V12.834C166.786 12.2676 166.665 11.8457 166.427 11.5684C166.192 11.291 165.815 11.1523 165.296 11.1523C164.862 11.1523 164.477 11.2891 164.141 11.5625C163.809 11.832 163.563 12.1973 163.403 12.6582V17H162.706V8H163.403V11.7324ZM171.902 15.9922L173.753 10.6602H174.509L171.802 18.0781L171.661 18.4062C171.314 19.1758 170.777 19.5605 170.05 19.5605C169.882 19.5605 169.702 19.5332 169.511 19.4785L169.505 18.8984L169.868 18.9336C170.212 18.9336 170.489 18.8477 170.7 18.6758C170.915 18.5078 171.097 18.2168 171.245 17.8027L171.556 16.9473L169.165 10.6602H169.933L171.902 15.9922Z" fill="black"/>
<line x1="0.646447" y1="31.2561" x2="21.1525" y2="10.75" stroke="black"/>
<line x1="20.3536" y1="10.75" x2="32.8635" y2="23.26" stroke="black"/>
<path d="M32.6465 22.75L55 1.60355" stroke="#333333"/>
<line x1="54.3536" y1="1.74999" x2="67.8628" y2="15.2592" stroke="black"/>
<line x1="6.64645" y1="39.7794" x2="23.6758" y2="22.75" stroke="black"/>
<line x1="23.3536" y1="22.75" x2="34.951" y2="34.3474" stroke="black"/>
<line x1="55.3536" y1="13.75" x2="66.8644" y2="25.2609" stroke="black"/>
<line x1="13.6464" y1="39.7999" x2="23.6963" y2="29.75" stroke="black"/>
<line x1="20.6464" y1="39.2777" x2="25.1741" y2="34.75" stroke="black"/>
<path d="M34.6552 33.7415L55.5 13.6036" stroke="black"/>
</svg>
